<?xml version="1.0" encoding="utf-8"?>
<!-- Generator: Adobe Illustrator 21.1.0, SVG Export Plug-In . SVG Version: 6.00 Build 0)  -->
<!DOCTYPE svg PUBLIC "-//W3C//DTD SVG 1.1//EN" "http://www.w3.org/Graphics/SVG/1.1/DTD/svg11.dtd">
<svg version="1.1" id="Layer_1" xmlns="http://www.w3.org/2000/svg" xmlns:xlink="http://www.w3.org/1999/xlink" x="0px" y="0px" width="60px" height="20px" 
	 viewBox="0 0 60 20" style="enable-background:new 0 0 60 20;" xml:space="preserve">
<style type="text/css">
	.st0{fill:#90B0CC;}
	.st1{fill:none;stroke:#FFFFFF;stroke-width:1.5;stroke-linecap:square;stroke-linejoin:round;}
</style>
<path class="st0" d="M13.2,17.4c-0.7,0-1.3-0.2-1.8-0.7s-0.8-1-0.8-1.7c0-0.6,0.3-1.2,0.8-1.6l11.8-10c0.4-0.4,1.1-0.6,1.7-0.6
	s1.3,0.2,1.8,0.7l9.1,8.4L45,3.4c0.5-0.4,1.1-0.7,1.8-0.7s1.2,0.2,1.8,0.6c0.5,0.4,0.8,1.1,0.8,1.6c0,0.6-0.2,1.3-0.8,1.7l-10.9,10
	c-0.4,0.4-1.1,0.6-1.8,0.6s-1.4-0.2-1.8-0.6l-9.2-8.4L15,16.7C14.4,17.1,13.9,17.4,13.2,17.4z"/>
<g>
	<g>
		<line class="st1" x1="13.4" y1="14.8" x2="16.5" y2="12.2"/>
		<polyline class="st1" points="21.8,7.8 24.9,5.2 27.9,7.8 		"/>
		<polyline class="st1" points="32.9,12.2 35.9,14.8 38.9,12.2 		"/>
		<line class="st1" x1="43.8" y1="7.8" x2="46.8" y2="5.2"/>
	</g>
</g>
</svg>
