<?xml version="1.0" encoding="utf-8"?>
<!-- Generator: Adobe Illustrator 21.1.0, SVG Export Plug-In . SVG Version: 6.00 Build 0)  -->
<svg version="1.1" id="svg4764" xmlns="http://www.w3.org/2000/svg" xmlns:xlink="http://www.w3.org/1999/xlink" x="0px" y="0px"
	 viewBox="0 0 60 20" style="enable-background:new 0 0 60 20;" xml:space="preserve">
<style type="text/css">
	.st0{fill:#E5BAC2;}
	.st1{fill:#FFFFFF;}
	.st2{fill:#C18694;}
</style>
<path class="st0" d="M11.3,17.4c-0.4,0-0.6-0.3-0.6-0.6V3.4c0-0.4,0.3-0.6,0.6-0.6h37.3c0.3,0,0.7,0.3,0.7,0.6v13.4
	c0,0.4-0.3,0.6-0.7,0.6H11.3z"/>
<path class="st1" d="M30.8,16.5h-1.5c-0.8,0-1.5-0.7-1.5-1.5v-4h-1.5c-0.8,0-1.5-0.7-1.5-1.5V8c0-0.8,0.7-1.5,1.5-1.5h1.5V5.8
	c0-0.1,0-0.2,0-0.4c0.4-1.8,1.8-1.9,2.3-1.9c0.7,0,1.4,0.3,1.8,0.8c0.4,0.5,0.5,1,0.4,1.6v0.6h1.5c0.8,0,1.5,0.7,1.5,1.5v1.5
	c0,0.8-0.7,1.5-1.5,1.5h-1.5v4C32.2,15.8,31.6,16.5,30.8,16.5z M29.3,5.4C29.3,5.4,29.3,5.4,29.3,5.4C29.3,5.4,29.3,5.4,29.3,5.4z"
	/>
<path class="st2" d="M30,5c-0.5,0-0.7,0.4-0.8,0.8V8h-3v1.5h3V15H30h0.8V9.5h3V8h-3V5.8C30.9,5.4,30.5,5,30,5L30,5z"/>
</svg>
