<?xml version="1.0" encoding="utf-8"?>
<!-- Generator: Adobe Illustrator 21.1.0, SVG Export Plug-In . SVG Version: 6.00 Build 0)  -->
<svg version="1.1" id="svg4764" xmlns="http://www.w3.org/2000/svg" xmlns:xlink="http://www.w3.org/1999/xlink" x="0px" y="0px"
	 width="60px" height="20px" viewBox="0 0 60 20" enable-background="new 0 0 60 20" xml:space="preserve">
<style type="text/css">
	.mo0{fill:#E5BAC2;}
	
		.mo1{opacity:0.8;fill:#FFFFFF;stroke:#FFFFFF;stroke-width:3;stroke-linejoin:round;stroke-miterlimit:10;enable-background:new    ;}
	.mo2{fill:#C18694;}
</style>
<path class="mo0" d="M11.3,17.4c-0.4,0-0.6-0.3-0.6-0.6V3.4c0-0.4,0.3-0.6,0.6-0.6h37.3c0.3,0,0.7,0.3,0.7,0.6v13.4
		c0,0.4-0.3,0.6-0.7,0.6H11.3z"/>
<path class="mo1" d="M31,6.1c-2.2,0-4,1.8-4,4s1.8,4,4,4c0.7,0,1.4-0.2,2-0.5c-0.2,0-0.3,0-0.5,0c-1.9,0-3.5-1.6-3.5-3.5
			s1.6-3.5,3.5-3.5c0.2,0,0.3,0,0.5,0C32.3,6.3,31.8,6.1,31,6.1z"/>
<path class="mo2" d="M31,6.1c-2.2,0-4,1.8-4,4s1.8,4,4,4c0.7,0,1.4-0.2,2-0.5c-0.2,0-0.3,0-0.5,0c-1.9,0-3.5-1.6-3.5-3.5
			s1.6-3.5,3.5-3.5c0.2,0,0.3,0,0.5,0C32.3,6.3,31.8,6.1,31,6.1z"/>
</svg>
