<?xml version="1.0" encoding="utf-8"?>
<!-- Generator: Adobe Illustrator 21.1.0, SVG Export Plug-In . SVG Version: 6.00 Build 0)  -->
<svg version="1.1" id="Layer_1" xmlns="http://www.w3.org/2000/svg" xmlns:xlink="http://www.w3.org/1999/xlink" x="0px" y="0px"
	 width="60px" height="20px" viewBox="0 0 60 20" enable-background="new 0 0 60 20" xml:space="preserve">
<path d="M48.7,18.3h-6.9v-2h6.5v-5.9h2v6.3C50.3,17.6,49.6,18.3,48.7,18.3z M38.7,18.3h-6.1v-2h6.1V18.3z M29.6,18.3H15.4v-2h14.2
	C29.6,16.3,29.6,18.3,29.6,18.3z M12.4,18.3h-1c-0.9,0-1.6-0.7-1.6-1.6v-4h2v3.7h0.6V18.3z M11.7,9.6h-2V3.4c0-0.9,0.7-1.6,1.6-1.6
	h6.9v2h-6.6L11.7,9.6L11.7,9.6z M50.3,7.4h-2V3.7h-0.6v-2h1c0.9,0,1.6,0.7,1.6,1.6V7.4z M44.6,3.7H30.5v-2h14.2v2H44.6z M27.4,3.7
	h-6.1v-2h6.1V3.7z"/>
</svg>
