<?xml version="1.0" encoding="utf-8"?>
<!-- Generator: Adobe Illustrator 21.1.0, SVG Export Plug-In . SVG Version: 6.00 Build 0)  -->
<svg version="1.1" id="svg4764" xmlns="http://www.w3.org/2000/svg" xmlns:xlink="http://www.w3.org/1999/xlink" x="0px" y="0px"
	 width="60px" height="20px" viewBox="0 0 60 20" enable-background="new 0 0 60 20" xml:space="preserve">
<style type="text/css">
	.syn0{fill:#E5BAC2;}
	.syn{opacity:0.8;fill:#FFFFFF;enable-background:new    ;}
	.syn{fill:#C18694;}
</style>
<path class="syn0" d="M11.3,17.4c-0.4,0-0.6-0.3-0.6-0.6V3.4c0-0.4,0.3-0.6,0.6-0.6h37.3c0.3,0,0.7,0.3,0.7,0.6v13.4
	c0,0.4-0.3,0.6-0.7,0.6H11.3z"/>
<path class="syn1" d="M30,17.4l-2.3-3.1H23l2.5-4.2L23,5.9h4.6L30,2.8l2.3,3.1H37l-2.5,4.2l2.5,4.2h-4.6L30,17.4z M28.6,11.2h0.7
	l0.8,1l0.8-1h0.7l-0.7-1l0.7-1h-0.7L30,8l-0.8,1h-0.7l0.7,1L28.6,11.2z"/>
<path class="syn2" d="M30,15.2L28.3,13h-3l1.7-2.8l-1.7-2.8h3L30,5l1.7,2.2h3L33,10l1.7,2.8h-3L30,15.2z M27,12h1.8l1.2,1.6l1.2-1.6
	H33l-1.1-1.9L33,8.2h-1.8L30,6.6l-1.2,1.6H27l1.1,1.9L27,12z"/>
</svg>
