<?xml version="1.0" encoding="utf-8"?>
<!-- Generator: Adobe Illustrator 21.1.0, SVG Export Plug-In . SVG Version: 6.00 Build 0)  -->
<svg version="1.1" id="Layer_1" xmlns="http://www.w3.org/2000/svg" xmlns:xlink="http://www.w3.org/1999/xlink" x="0px" y="0px"
	 width="60px" height="20px" viewBox="0 0 60 20" enable-background="new 0 0 60 20" xml:space="preserve">
<style type="text/css">
	.tm0{display:none;fill:#010101;}
	.tm1{fill:none;stroke:#000000;stroke-width:2;stroke-linecap:round;stroke-linejoin:round;stroke-miterlimit:10;}
	.tm2{fill:none;stroke:#000000;stroke-width:1.5;stroke-linecap:round;stroke-linejoin:round;stroke-miterlimit:10;}
</style>
<path class="tm0" d="M13.3,17.2c-0.7,0-1.4-0.2-1.8-0.7c-0.5-0.5-0.8-1.1-0.8-1.7c0-0.6,0.3-1.2,0.8-1.6l11.7-10
	c0.5-0.4,1.1-0.6,1.7-0.6c0.6,0,1.3,0.2,1.8,0.7l9.1,8.4l9.2-8.4c0.5-0.4,1.1-0.7,1.8-0.7c0.7,0,1.2,0.2,1.8,0.6
	c0.5,0.4,0.8,1.1,0.8,1.6c0,0.6-0.2,1.3-0.8,1.7l-10.9,10c-0.5,0.4-1.1,0.6-1.8,0.6s-1.3-0.2-1.8-0.6L25,8.1l-10,8.5
	C14.6,17,14,17.2,13.3,17.2z"/>
<polyline class="tm1" points="13.4,14.8 24.9,5.2 35.9,14.8 46.8,5.2 "/>
<line class="tm2" x1="13.9" y1="11.3" x2="17" y2="14.5"/>
<line class="tm2" x1="18.9" y1="7.2" x2="22" y2="10.4"/>
<line class="tm2" x1="39.1" y1="9" x2="42.2" y2="12.2"/>
<line class="tm2" x1="43.9" y1="4.8" x2="47" y2="8"/>
<line class="tm2" x1="31.3" y1="13.7" x2="34.5" y2="10.7"/>
<line class="tm2" x1="26.6" y1="9.6" x2="29.8" y2="6.6"/>
</svg>
