<?xml version="1.0" encoding="utf-8"?>
<!-- Generator: Adobe Illustrator 21.1.0, SVG Export Plug-In . SVG Version: 6.00 Build 0)  -->
<svg version="1.1" id="Layer_1" xmlns="http://www.w3.org/2000/svg" xmlns:xlink="http://www.w3.org/1999/xlink" x="0px" y="0px" width="60px" height="20px" 
	 viewBox="0 0 60 20" style="enable-background:new 0 0 60 20;" xml:space="preserve">
<style type="text/css">
	.st0{fill:#90B0CC;}
	.st1{fill:none;stroke:#FFFFFF;stroke-linecap:round;stroke-linejoin:round;stroke-miterlimit:10;}
</style>
<path class="st0" d="M13.2,17.4c-0.7,0-1.3-0.2-1.8-0.7s-0.8-1-0.8-1.7c0-0.6,0.3-1.2,0.8-1.6l11.8-10c0.4-0.4,1.1-0.6,1.7-0.6
	s1.3,0.2,1.8,0.7l9.1,8.4L45,3.4c0.5-0.4,1.1-0.7,1.8-0.7s1.2,0.2,1.8,0.6c0.5,0.4,0.8,1.1,0.8,1.6c0,0.6-0.2,1.3-0.8,1.7l-10.9,10
	c-0.4,0.4-1.1,0.6-1.8,0.6s-1.4-0.2-1.8-0.6l-9.2-8.4L15,16.7C14.4,17.1,13.9,17.4,13.2,17.4z"/>
<polyline class="st1" points="13.4,14.8 24.9,5.2 35.9,14.8 46.8,5.2 "/>
</svg>
