<?xml version="1.0" encoding="utf-8"?>
<!-- Generator: Adobe Illustrator 17.1.0, SVG Export Plug-In . SVG Version: 6.00 Build 0)  -->
<!DOCTYPE svg PUBLIC "-//W3C//DTD SVG 1.1//EN" "http://www.w3.org/Graphics/SVG/1.1/DTD/svg11.dtd">
<svg version="1.1" id="Layer_1" xmlns="http://www.w3.org/2000/svg" xmlns:xlink="http://www.w3.org/1999/xlink" x="0px" y="0px"
	 width="60px" height="20px" viewBox="0 20 80 40" enable-background="new 0 20 80 40" xml:space="preserve">
<path stroke-miterlimit="10" d="M6.4,54.7c-1.4,0-2.7-0.5-3.6-1.4c-1-0.9-1.5-2.1-1.5-3.4
	c0-1.3,0.6-2.5,1.6-3.3l23.5-20c0.9-0.8,2.2-1.2,3.4-1.2c1.3,0,2.6,0.5,3.6,1.4l18.3,16.7L70,26.7c1-0.9,2.2-1.4,3.6-1.4
	c1.3,0,2.5,0.5,3.5,1.3c1,0.9,1.6,2.1,1.6,3.3c0,1.3-0.5,2.5-1.5,3.4l-21.8,20c-0.9,0.8-2.2,1.3-3.6,1.3c-1.4,0-2.7-0.5-3.6-1.3
	L29.8,36.5l-19.9,17C8.9,54.2,7.7,54.7,6.4,54.7z"/>
</svg>
