<?xml version="1.0" encoding="utf-8"?>
<!-- Generator: Adobe Illustrator 21.1.0, SVG Export Plug-In . SVG Version: 6.00 Build 0)  -->
<svg version="1.1" id="Layer_1" xmlns="http://www.w3.org/2000/svg" xmlns:xlink="http://www.w3.org/1999/xlink" x="0px" y="0px"
	 width="60px" height="20px" viewBox="0 0 60 20" enable-background="new 0 0 60 20" xml:space="preserve">
<style type="text/css">
	.tr0{display:none;fill:none;stroke:#000000;stroke-width:2;stroke-linecap:round;stroke-linejoin:round;stroke-miterlimit:10;}
	.tr1{fill:none;stroke:#000000;stroke-width:1.5;stroke-linecap:round;stroke-linejoin:round;stroke-miterlimit:10;}
	.tr2{display:none;fill:#88C540;}
</style>
<polyline class="tr0" points="7.5,13.2 23.2,1.1 37.9,13.2 49.6,3.5 "/>
<polyline class="tr0" points="10.1,16.9 23.2,6.8 37.9,18.9 52.5,6.8 "/>
<path class="tr1" d="M35.9,18.5l-11-9.6L15,17.2c-3.5,2.3-5.8-2.1-3.3-3.9L25,2.3l11,9.6l9.1-8c2.3-2.1,6,0.8,3.6,3.3L35.9,18.5z"/>
<path class="tr2" d="M13.2,17.8c-0.7,0-1.3-0.2-1.8-0.7s-0.8-1-0.8-1.7c0-0.6,0.3-1.2,0.8-1.6l11.8-10c0.4-0.4,1.1-0.6,1.7-0.6
	s1.3,0.2,1.8,0.7l9.1,8.4L45,3.8c0.5-0.4,1.1-0.7,1.8-0.7s1.2,0.2,1.8,0.6c0.5,0.4,0.8,1,0.8,1.6S49.2,6.6,48.6,7L37.7,17
	c-0.4,0.4-1.1,0.6-1.8,0.6s-1.4-0.2-1.8-0.6l-9.2-8.4L15,17.1C14.4,17.5,13.9,17.8,13.2,17.8z"/>
<line class="tr1" x1="14.2" y1="11.6" x2="17.1" y2="15.1"/>
<line class="tr1" x1="19.1" y1="7.4" x2="21.9" y2="10.5"/>
<line class="tr1" x1="26.4" y1="10.2" x2="30.1" y2="6.8"/>
<line class="tr1" x1="31" y1="13.7" x2="34.2" y2="10.7"/>
<line class="tr1" x1="38.7" y1="9.9" x2="41.7" y2="12.8"/>
<line class="tr1" x1="43.1" y1="5.9" x2="46.2" y2="9"/>
</svg>
