<?xml version="1.0" encoding="utf-8"?>
<!-- Generator: Adobe Illustrator 22.0.1, SVG Export Plug-In . SVG Version: 6.00 Build 0)  -->
<svg version="1.1" id="Layer_1" xmlns="http://www.w3.org/2000/svg" xmlns:xlink="http://www.w3.org/1999/xlink" x="0px" y="0px"
	 viewBox="0 0 1000 1000" style="enable-background:new 0 0 1000 1000;" xml:space="preserve">
<path d="M958,641.3c1.5,4.3,2.5,8.3,2.9,12l22.3,188.6c1.8,12.9-0.7,24.6-7.4,35.2c-6.7,10.7-16.1,18.1-28,22.5l-265.8,96.7
	c-17,6.2-33.2,4.3-48.3-5.5L388.3,825.5c-12.9-8.8-20.8-20.7-23.7-35.5c-3-14.9-0.2-28.4,8.4-40.7c8.5-12.3,20.2-19.9,35.1-22.9
	c14.8-3,28-0.3,39.7,7.9l61.3,41.3L380.8,423.1c-5.3-14.5-4.8-28.4,1.4-41.8c6.3-13.4,16.6-22.7,31.1-28c14.4-5.3,28.4-4.8,41.7,1.5
	c13.3,6.2,22.6,16.6,27.9,31.1l93,255.6l10.2-3.8l-18.6-51.1c-5.3-14.5-4.8-28.4,1.4-41.8c6.3-13.4,16.6-22.7,31.1-28
	c14.4-5.3,28.4-4.8,41.7,1.4c13.3,6.2,22.6,16.6,27.9,31l18.6,51.1l10.2-3.7l-11.1-30.7c-5.3-14.5-4.8-28.4,1.5-41.8
	c6.2-13.4,16.6-22.7,31.1-28c14.4-5.3,28.4-4.8,41.7,1.4c13.4,6.2,22.7,16.6,27.9,31.1l11.2,30.6l10.2-3.7
	c-5.3-14.5-4.8-28.4,1.5-41.8c6.2-13.4,16.6-22.7,31.1-28s28.4-4.8,41.8,1.4c13.3,6.2,22.6,16.6,27.9,31.1L958,641.3z M613.2,743.7
	l44.7,122.7l10.2-3.8l-44.6-122.6L613.2,743.7z M725.6,702.7l44.7,122.7l10.2-3.7L735.9,699L725.6,702.7z M838.1,661.8l44.7,122.6
	l10.2-3.7l-44.6-122.6L838.1,661.8z M73,226l148.2,39.4 M232.6,241.1l-137.3-64l-22.6,48.5l137.3,64L232.6,241.1z M298.9,9.1
	l73.3,201.3 M397.3,201.3L324.1,0l-50.3,18.3L347,219.6L397.3,201.3z M587.2,18.2l-64,137.3 M611.5,29.5L562.9,6.9l-64,137.3
	l48.5,22.6L611.5,29.5z M175.5,453l-151,54.9 M184.7,478.1l-18.3-50.3l-151,55l18.3,50.3L184.7,478.1z M678.8,269.8l151-54.9
	 M838.9,240l-18.3-50.3l-151,54.9l18.3,50.3L838.9,240z"/>
</svg>
