<?xml version="1.0" encoding="utf-8"?>
<!-- Generator: Adobe Illustrator 22.0.1, SVG Export Plug-In . SVG Version: 6.00 Build 0)  -->
<svg version="1.1" id="Layer_1" xmlns="http://www.w3.org/2000/svg" xmlns:xlink="http://www.w3.org/1999/xlink" x="0px" y="0px"
	 viewBox="0 0 997.6 1003.4" style="enable-background:new 0 0 997.6 1003.4;" xml:space="preserve">
<style type="text/css">
	.st0{fill:#666666;}
</style>
<path class="st0" d="M905.3,550.1c-5-15-15-25-25-30c-10-5-25-5-40,0c-15,5-25,15-30,25c-5,10-5,25,0,40l-10,5l-10-30
	c-5-15-15-25-25-30c-10-5-25-5-40,0c-15,5-25,15-30,25c-5,10-5,25,0,40l10,30l-10,5l-20-50c-5-15-15-25-25-30c-10-5-25-5-40,0
	s-25,15-30,25c-5,10-5,25,0,40l15,50l-10,5l-80-245c-5-15-15-25-25-30c-10-5-25-5-40,0c-15,5-25,10-30,25c-5,10-5,25,0,40l120,330
	l-60-40c-10-10-25-10-35-5c-15,0-25,10-35,20c-10,10-10,25-10,40c5,15,10,25,20,35l230,155c15,10,30,10,45,5l250-90
	c10-5,20-10,25-20c5-10,10-20,5-35l-20-175c0-5,0-10-5-10L905.3,550.1z M635.3,755.1l40,115l-10,5l-40-115L635.3,755.1z
	 M740.3,715.1l40,115l-10,5l-40-115L740.3,715.1z M845.3,680.1l40,115l-5,0l-40-115L845.3,680.1z M730.3,0v400.1h-50V50H80.2v600.1
	h200v50h-250V0H730.3z"/>
</svg>
